<svg xmlns="http://www.w3.org/2000/svg" viewBox="0 0 596 152" width="596" height="152">
<g fill-rule="evenodd" stroke="none">
<path d="M 60.00 101.50 L 48.00 100.50 L 38.50 93.00 L 34.50 80.00 L 35.50 68.00 L 39.50 60.00 L 49.00 53.50 L 62.00 53.50 L 70.00 59.50 L 70.50 36.00 L 78.00 35.50 L 78.50 100.00 L 71.00 100.50 L 70.00 95.50 L 67.00 98.50 L 60.00 101.50 Z" fill="#FFFFFF"/>
<path d="M 500.00 100.50 L 484.00 100.50 L 479.00 98.50 L 475.50 95.00 L 473.50 90.00 L 473.50 61.00 L 458.50 60.00 L 459.00 54.50 L 473.50 54.00 L 474.00 42.50 L 481.50 43.00 L 482.00 54.50 L 500.50 55.00 L 500.00 60.50 L 481.50 61.00 L 481.50 88.00 L 486.00 93.50 L 500.00 93.50 L 500.00 100.50 Z" fill="#FFFFFF"/>
<path d="M 226.00 101.50 L 215.00 101.50 L 209.00 99.50 L 202.50 94.00 L 198.50 85.00 L 199.50 66.00 L 208.00 55.50 L 213.00 53.50 L 228.00 53.50 L 237.50 61.00 L 240.50 67.00 L 241.00 79.50 L 206.50 80.00 L 209.50 90.00 L 216.00 94.50 L 228.00 93.50 L 233.00 86.50 L 240.50 87.00 L 240.50 90.00 L 237.50 95.00 L 232.00 99.50 L 226.00 101.50 Z" fill="#FFFFFF"/>
<path d="M 387.00 101.50 L 375.00 101.50 L 368.00 98.50 L 362.50 93.00 L 360.50 88.00 L 361.00 85.50 L 368.00 85.50 L 373.00 93.50 L 379.00 95.50 L 387.00 94.50 L 391.50 91.00 L 392.50 88.00 L 389.00 82.50 L 371.00 78.50 L 363.50 73.00 L 362.50 62.00 L 368.00 55.50 L 372.00 53.50 L 387.00 53.50 L 393.00 57.50 L 397.50 64.00 L 397.00 66.50 L 390.00 66.50 L 387.50 62.00 L 384.00 59.50 L 375.00 59.50 L 369.50 65.00 L 372.00 70.50 L 392.00 75.50 L 399.50 83.00 L 398.50 94.00 L 393.00 99.50 L 387.00 101.50 Z" fill="#FFFFFF"/>
<path d="M 269.00 100.50 L 261.50 100.00 L 261.50 55.00 L 268.00 54.50 L 269.00 61.50 L 276.00 55.50 L 283.00 53.50 L 292.00 53.50 L 292.00 61.50 L 285.00 60.50 L 277.00 62.50 L 271.50 67.00 L 269.50 71.00 L 269.00 100.50 Z" fill="#FFFFFF"/>
<path d="M 122.00 100.50 L 114.50 100.00 L 114.50 61.00 L 95.00 60.50 L 95.00 54.50 L 122.50 55.00 L 122.00 100.50 Z" fill="#FFFFFF"/>
<path d="M 167.00 100.50 L 158.50 100.00 L 142.50 59.00 L 142.00 54.50 L 150.50 55.00 L 163.00 89.50 L 164.50 89.00 L 176.50 56.00 L 178.00 54.50 L 185.50 55.00 L 167.00 100.50 Z" fill="#FFFFFF"/>
<path d="M 439.00 100.50 L 431.50 100.00 L 431.50 61.00 L 411.00 60.50 L 411.00 54.50 L 439.50 55.00 L 439.00 100.50 Z" fill="#FFFFFF"/>
<path d="M 533.00 117.50 L 525.50 117.00 L 532.50 98.00 L 514.50 55.00 L 523.50 55.00 L 537.00 88.50 L 551.50 55.00 L 559.00 54.50 L 559.50 57.00 L 533.00 117.50 Z" fill="#FFFFFF"/>
<path d="M 61.50 94.00 L 65.00 92.50 L 69.50 87.00 L 71.50 79.00 L 70.50 70.00 L 64.00 61.50 L 60.00 59.50 L 55.00 59.50 L 50.00 61.50 L 44.50 68.00 L 43.50 83.00 L 47.50 91.00 L 51.00 93.50 L 61.50 94.00 Z" fill="#FFFFFF"/>
<path d="M 233.50 72.00 L 230.50 64.00 L 224.00 59.50 L 216.00 59.50 L 212.00 61.50 L 206.50 71.00 L 207.00 72.50 L 233.50 72.00 Z" fill="#FFFFFF"/>
<path d="M 120.00 46.50 L 115.00 46.50 L 111.50 43.00 L 111.50 37.00 L 115.00 33.50 L 121.00 33.50 L 124.50 38.00 L 123.50 44.00 L 120.00 46.50 Z" fill="#A7C4D4"/>
<path d="M 437.00 46.50 L 431.00 45.50 L 428.50 42.00 L 428.50 37.00 L 432.00 33.50 L 438.00 33.50 L 441.50 37.00 L 441.50 43.00 L 437.00 46.50 Z" fill="#A7C4D4"/>
<path d="M 329.00 101.50 L 310.00 100.50 L 300.00 96.50 L 290.50 89.00 L 297.00 80.50 L 305.00 86.50 L 314.00 90.50 L 326.00 91.50 L 333.50 88.00 L 332.00 83.50 L 312.00 80.50 L 304.50 73.00 L 304.50 64.00 L 306.50 60.00 L 312.00 55.50 L 324.00 52.50 L 338.00 53.50 L 345.50 56.00 L 342.00 66.50 L 334.00 63.50 L 321.00 63.50 L 316.50 67.00 L 316.50 69.00 L 320.00 71.50 L 339.00 74.50 L 343.50 78.00 L 345.50 82.00 L 345.50 90.00 L 343.50 94.00 L 340.00 97.50 L 329.00 101.50 Z" fill="#A7C4D4"/>
</g></svg>