<?xml version="1.0" encoding="utf-8"?>
<!-- Generator: Adobe Illustrator 19.0.0, SVG Export Plug-In . SVG Version: 6.00 Build 0)  -->
<svg version="1.1" id="layer" xmlns="http://www.w3.org/2000/svg" xmlns:xlink="http://www.w3.org/1999/xlink" x="0px" y="0px"
	 viewBox="-153 -46 652 652" style="enable-background:new -153 -46 652 652;" xml:space="preserve">
<style type="text/css">
	.st0{fill:#00B8F1;}
</style>
<path d="M-131.4,416.5V365h17.5c18.3,0,29.7,10.9,29.7,25.8c0,15-11.3,25.8-29.6,25.8L-131.4,416.5L-131.4,416.5z M-118.1,376v29.5
	h4.2c10.6,0,16.3-6.8,16.3-14.7c0-8-5.7-14.7-16.4-14.7C-114,376-118.1,376-118.1,376z M-46.9,365c12.5,0,21.2,6,21.2,17.5
	c0,7.5-3.8,12.4-9.6,14.9l10.6,19.1h-13.9l-8.4-16.9H-53v16.9h-13v-51.5L-46.9,365L-46.9,365z M-53,376v13.1h6.7
	c4,0,7.1-1.9,7.1-6.6c0-4.5-3.1-6.5-7.1-6.5L-53,376L-53,376z M-3.8,416.5V365h34.4v11h-21v9.2h17.9v10.4H9.5v9.9h22.1v11
	L-3.8,416.5L-3.8,416.5z M72.7,364.3h0.7l26,52.2H85.5l-3.7-7.9H64.2l-3.6,7.9H46.6L72.7,364.3L72.7,364.3z M78,399.8
	c-1.8-4.1-4-9.2-4.9-12.3c-0.7,1.7-3.6,9-5,12.3H78z M128.1,393.1l-3.4-2.8v26.2H112v-52.2h0.3l25.5,22.8l25.5-22.8h0.4v52.2h-12.8
	v-26.2l-3.4,2.8c-3.3,3.1-6.5,6.2-9.8,9.2C134.5,399.2,131.3,396.2,128.1,393.1L128.1,393.1z M312,364.3h0.7l26,52.2h-13.9l-3.7-7.9
	h-17.6l-3.6,7.9h-13.9L312,364.3L312,364.3z M317.3,399.8c-1.8-4.1-4-9.2-4.9-12.3c-0.7,1.7-3.6,9-5,12.3H317.3z M363.1,398.9v16.4
	h-13.3v-51.5h17.5c12.6,0,21.3,5.8,21.3,17.5c0,11.8-8.7,17.6-21.3,17.6H363.1z M363.1,374.8V388h4.8c4.1,0,7.2-1.9,7.2-6.6
	c0-4.5-3.2-6.5-7.3-6.5L363.1,374.8L363.1,374.8z M402.9,416.5V365h34.4v11h-21v9.2h17.9v10.4h-17.9v9.9h22.1v11L402.9,416.5
	L402.9,416.5z M212.3,378.4c-1.5-1.2-4.7-3.4-8.6-3.4c-3.8,0-6.1,2.2-5.9,4.4c0.4,3.3,2.9,3.8,9.4,5.9c7.1,2.3,12.7,6.4,12.7,15.2
	c0,7.3-4,13.8-11.6,16c-9.3,2.7-19.1,0.8-26.7-4.5l5.7-10.7c2.6,2,6,5,11.8,5.2c6.3,0.2,7.7-5.1,5.6-7.6c-2.6-3.2-11.6-3.8-16.7-7.9
	c-4.9-4-5.3-11.7-3.1-17.2c2.4-5.8,7.9-9.9,16.7-9.9c7.7,0,13.5,2.8,16.1,4.2L212.3,378.4L212.3,378.4z M263.1,404.8
	c4.4,0,8.6-2,11.3-5.5v15.8c-3.8,1.8-8,2.7-12.3,2.7c-15.1,0-27.4-12.1-27.4-26.9c0-14.9,12.3-26.9,27.4-26.9c4.4,0,8.6,1,12.3,2.7
	v15.8c-2.7-3.6-6.9-5.7-11.3-5.6c-7.8,0-14.2,5.6-14.2,14C248.9,399.2,255.2,404.8,263.1,404.8z M452.8,366.2v9.8h-1.5v-9.8h-3.4
	V365h8.3v1.2H452.8L452.8,366.2z M460.2,368.9l-0.3-0.3v7.4h-1.5v-11.2l5.1,6.1l5.1-6.1V376h-1.4v-7.4l-0.3,0.3l-3.4,4L460.2,368.9
	L460.2,368.9z"/>
<path class="st0" d="M146.6,311.9c-2.7,0-5.3-0.1-8-0.1c-1-30-1.5-60.2-1.5-90c0-29.8,0.5-60,1.5-90c2.7-0.1,5.3-0.1,8-0.1
	C146.2,191,146.2,252.4,146.6,311.9z M125.9,132.1c-2.8,0.1-5.6,0.3-8.4,0.5c-1.8,29.7-2.8,59.5-2.8,89.2c0,29.7,0.9,59.5,2.8,89.2
	c2.8,0.1,5.6,0.3,8.4,0.5c-1-29.9-1.5-59.7-1.5-89.6C124.5,192.1,124.9,162,125.9,132.1z M210.7,134.1c-3.2-0.3-6.3-0.6-9.5-0.8
	c3.7,58.9,3.7,117.9,0,176.8l9.5-0.8c2.6-29.1,4-58.4,4-87.6C214.7,192.5,213.4,163.2,210.7,134.1z M168.5,131.7
	c-2.7-0.1-5.3-0.1-8-0.1c0.4,59.5,0.4,120.8,0,180.4c2.7,0,5.3-0.1,8-0.1c1-30,1.5-60.2,1.5-90C170,192,169.4,161.7,168.5,131.7z
	 M189.5,132.5c-2.8-0.1-5.6-0.3-8.4-0.5c1,29.9,1.5,60,1.5,89.6s-0.5,59.6-1.5,89.6c2.8-0.1,5.6-0.3,8.4-0.5
	c1.8-29.7,2.8-59.5,2.8-89.2C192.3,191.9,191.4,162.2,189.5,132.5z M44.9,141.1c-4.4,0.8-8.8,1.6-13.1,2.5
	c-4.4,25.8-6.6,52-6.6,78.1c0,26.3,2.2,52.4,6.7,78.1c4.4,0.9,8.7,1.7,13.1,2.5c-3.9-26.7-5.9-53.6-5.9-80.6
	C39.1,194.7,41,167.7,44.9,141.1z M65.2,137.8l-11.5,1.8c-4.1,27.2-6.1,54.6-6.1,82.1c0,27.6,2,55,6.1,82.1
	c3.8,0.7,7.6,1.2,11.5,1.8c-3.2-27.9-4.7-55.9-4.7-83.9C60.4,193.7,62,165.6,65.2,137.8z M24,145.2c-5.1,1.1-10.1,2.2-15,3.4
	c-4.4,24.1-6.7,48.6-6.7,73.1c0,24.7,2.2,49.1,6.7,73.1c5,1.2,10,2.3,15.1,3.4c-4.2-25.3-6.3-50.9-6.3-76.5
	C17.7,196.1,19.8,170.5,24,145.2z M85.6,135.2c-3.6,0.4-7.2,0.8-10.7,1.3c-3.3,28.2-5,56.8-5,85.2c0,28.5,1.6,57,4.9,85.2
	c3.6,0.5,7.1,0.9,10.7,1.3c-2.6-28.8-3.9-57.6-3.9-86.5C81.7,192.8,83,163.9,85.6,135.2z M105.9,133.3l-9.5,0.8
	c-2.6,29.1-4,58.5-4,87.6c0,29.2,1.4,58.5,4,87.6c3.2,0.3,6.3,0.6,9.5,0.8C102.2,251.2,102.2,192.2,105.9,133.3z M3.2,150
	c-5.5,1.4-11.1,2.9-16.6,4.5c-4.2,22.2-6.3,44.7-6.3,67.2c0,22.7,2.1,45.2,6.2,67.2c5.5,1.6,11.1,3,16.6,4.5
	c-4.2-23.6-6.3-47.6-6.3-71.6C-3.1,197.7-1,173.7,3.2,150L3.2,150z M-19.2,156.1c-6,1.7-11.9,3.6-17.8,5.5
	c-6.3,19.4-9.5,39.6-9.5,60c0,21,3.4,41.1,9.5,60c5.9,1.9,11.8,3.8,17.8,5.5c-3.9-21.5-5.8-43.4-5.8-65.5
	C-25,199.6-23.1,177.7-19.2,156.1L-19.2,156.1z M275.3,143.5c-4.4-0.9-8.7-1.7-13.1-2.5c3.9,26.6,5.8,53.6,5.8,80.6
	c0,27-2,53.9-5.9,80.6c4.4-0.8,8.8-1.6,13.1-2.5c4.4-25.8,6.7-52,6.7-78.1C281.9,195.5,279.7,169.4,275.3,143.5L275.3,143.5z
	 M298.1,148.7c-5-1.2-10-2.3-15-3.4c8.4,50.7,8.4,102.4,0,153c5.1-1.1,10.1-2.2,15.1-3.4c4.4-24.1,6.7-48.6,6.7-73.1
	C304.8,197.1,302.6,172.6,298.1,148.7z M253.4,139.6c-3.8-0.7-7.6-1.2-11.5-1.8c3.2,27.9,4.8,55.9,4.7,83.9c0,28-1.6,56.1-4.7,83.9
	l11.5-1.8c4.1-27.2,6.1-54.6,6.1-82.1C259.5,194.2,257.5,166.7,253.4,139.6z M353.5,221.7c0-21-3.4-41.1-9.5-60
	c-5.9-1.9-11.9-3.8-17.8-5.5c3.9,21.6,5.9,43.6,5.9,65.5c0,22-1.9,43.9-5.8,65.5c6-1.7,11.9-3.6,17.8-5.5
	C350.2,262.8,353.5,242.6,353.5,221.7L353.5,221.7z M320.4,154.5c-5.5-1.6-11.1-3-16.6-4.5c4.2,23.6,6.3,47.6,6.3,71.6
	c0,24.2-2.1,48.1-6.3,71.6c5.6-1.4,11.1-2.9,16.6-4.5c4.2-22,6.2-44.5,6.2-67.2C326.7,199.2,324.6,176.7,320.4,154.5z M232.1,136.5
	c-3.6-0.5-7.1-0.9-10.7-1.3c2.6,28.8,3.9,57.6,3.9,86.5c0,28.8-1.3,57.8-3.9,86.5c3.6-0.4,7.2-0.8,10.7-1.3
	c3.3-28.3,4.9-56.7,4.9-85.2C237.1,193.3,235.4,164.7,232.1,136.5L232.1,136.5z"/>
</svg>
