<?xml version="1.0" encoding="UTF-8" standalone="no"?>
<!-- Created with Inkscape (http://www.inkscape.org/) -->
<svg
   xmlns:svg="http://www.w3.org/2000/svg"
   xmlns="http://www.w3.org/2000/svg"
   version="1.0"
   width="956.69287"
   height="614.76379"
   id="svg2">
  <defs
     id="defs4" />
  <g
     transform="translate(334.21875,-232.059)"
     id="layer1">
    <path
       d="M 543.67456,267.48952 C 541.87511,267.43431 540.1739,268.02796 538.83081,269.58327 L 472.54956,359.73952 L 459.86206,374.70827 C 447.26922,366.02523 436.49199,352.94268 425.67456,342.27077 C 417.11764,336.68258 409.78976,322.02182 397.92456,328.11452 C 396.91558,333.04299 396.90517,338.94696 399.89331,343.45827 C 402.31874,347.24194 406.31011,346.85361 409.98706,347.27077 L 413.86206,353.64577 C 426.57132,357.50706 434.10805,369.99246 442.39331,379.92702 C 445.26503,381.57631 448.44039,384.34391 449.36206,387.73952 C 428.99814,410.39305 416.01937,437.40615 394.83081,459.73952 C 394.66588,463.009 393.28774,467.67172 396.23706,470.42702 C 401.0006,472.94947 405.78755,471.08783 409.29956,467.33327 C 425.31711,442.42894 441.83105,417.34862 462.33081,395.36452 L 486.54956,417.23952 C 496.46472,426.27183 503.98318,437.21211 514.95581,444.61452 C 518.60365,447.22429 518.90806,440.68794 522.92456,440.27077 C 522.62381,437.16622 527.24314,433.09919 522.23706,430.77077 C 520.2288,429.2185 518.19812,429.89466 515.54956,430.02077 C 512.71666,427.9349 517.41078,427.15628 516.79956,424.89577 C 516.09134,419.55012 511.68075,423.63595 509.36206,420.95827 C 509.90536,419.92018 510.65841,419.13117 510.58081,417.80202 C 498.22081,405.19948 483.66211,396.52998 470.20581,385.77077 L 468.98706,382.98952 C 476.71934,369.19367 488.56862,357.60933 498.58081,344.95827 C 508.29223,330.94898 522.97649,319.70591 531.45581,305.11452 C 540.27468,295.17025 546.56413,284.30245 554.11206,273.98952 C 552.05772,270.888 547.63335,267.61099 543.67456,267.48952 z M 258.36206,291.64577 C 257.87563,291.64602 257.36497,291.71993 256.76831,291.89577 C 253.63465,292.42937 251.05537,295.64803 249.86206,298.36452 C 245.46718,317.58364 241.45904,337.04665 235.42456,355.20827 C 238.49031,368.49964 222.67257,365.16226 216.14331,370.33327 C 215.43509,374.63113 211.50025,378.57083 213.79956,383.20827 L 229.26831,380.17702 L 230.23706,381.36452 C 215.29641,438.81814 202.44502,500.73013 208.51831,560.39577 C 209.55639,562.70478 209.30684,567.04143 213.08081,566.61452 C 215.8458,567.38096 217.05018,564.21529 218.33081,562.61452 C 217.58378,500.70781 234.97508,441.0957 244.42456,381.89577 L 247.95581,373.98952 C 263.27483,368.51775 278.22095,362.34107 293.26831,355.52077 C 299.28338,354.67672 301.104,348.33825 302.54956,343.45827 C 301.88014,339.86863 298.17771,339.64742 295.39331,341.08327 C 281.53925,350.88201 266.02156,354.34995 250.79956,358.95827 L 249.83081,357.73952 C 255.37049,338.20995 258.41613,317.51909 263.95581,297.98952 C 262.69095,295.54468 261.76708,291.64405 258.36206,291.64577 z M 218.64331,295.08327 C 217.31296,295.12546 216.00621,295.55969 214.79956,296.52077 C 197.78273,318.67951 201.82553,350.26249 192.42456,376.58327 L 178.92456,488.14577 L 177.89331,489.55202 L 170.33081,480.80202 C 154.17745,455.49021 136.03244,426.42083 114.45581,404.42702 C 112.92294,402.49637 109.24838,402.07502 107.70581,404.08327 C 109.19018,417.85002 105.05036,432.93182 102.79956,446.70827 C 98.365872,456.72044 100.44524,470.98121 93.799561,479.20827 C 93.149545,469.70058 93.350492,460.09924 89.518311,451.55202 C 85.084625,433.07023 64.644845,433.5432 51.237061,428.05202 C 44.833922,424.68553 39.357404,420.76578 31.237061,422.67702 C 17.179261,426.75175 4.8026615,439.15801 -3.9191895,450.20827 C -7.8677915,455.89347 -9.6225475,463.36588 -13.512939,468.61452 C -15.133126,457.91351 -9.8141145,448.00649 -11.356689,436.64577 C -4.6042875,429.53442 -4.9678985,417.2223 -4.3566895,408.08327 C 2.9293075,392.47322 4.5464155,372.70661 7.3308105,356.14577 C 15.344436,343.69845 9.3665945,326.99198 14.799561,314.02077 C 15.488384,311.9058 14.146156,310.22237 12.205811,309.98952 C 2.0189985,318.46884 -2.9867455,331.48552 -9.9816895,342.73952 C -33.178513,376.67614 -61.121362,408.11304 -83.512939,442.58327 C -86.142109,446.44454 -85.739589,452.4112 -90.794189,454.45827 C -113.29249,427.09939 -130.34121,396.20009 -149.63794,367.67702 L -147.38794,344.23952 C -149.50292,341.58125 -149.51022,336.1127 -154.13794,338.20827 L -154.35669,340.14577 C -159.11054,345.30708 -159.54216,352.7169 -162.20044,358.77077 C -164.96542,361.73951 -169.43687,358.79837 -171.23169,362.98952 C -173.25935,365.37614 -171.14701,367.80234 -169.85669,369.92702 C -172.99033,383.81018 -178.14379,396.38698 -182.88794,408.98952 C -204.40636,462.63037 -229.45947,514.33123 -249.51294,568.58327 C -251.48239,574.26849 -256.15383,582.49406 -250.85669,587.92702 C -249.11038,589.88674 -246.81317,589.05017 -244.95044,588.17702 C -228.60303,547.09994 -215.18293,504.80929 -194.73169,466.17702 L -194.13794,466.67702 C -202.88889,493.29854 -212.64451,520.65273 -218.38794,549.58327 C -225.27616,557.99467 -221.94333,571.09274 -226.79419,580.83327 C -232.58611,602.53602 -236.02116,628.44383 -243.20044,650.86452 C -256.4918,676.73903 -259.22761,708.21122 -273.73169,733.27077 C -282.65726,726.98408 -276.58775,740.85983 -284.38794,741.92702 C -289.11266,758.2647 -292.40075,775.41182 -298.79419,790.89577 C -298.52254,794.22344 -294.52915,795.78404 -291.35669,794.83327 C -286.9424,792.70857 -283.87844,788.89961 -283.32544,784.14577 C -272.22666,761.96764 -267.31136,736.45627 -255.38794,714.80202 L -254.04419,716.48952 C -253.53971,717.86714 -255.13804,718.33819 -254.85669,719.67702 C -253.92533,721.11289 -252.90141,721.87739 -251.38794,722.05202 C -238.60106,711.904 -240.3112,692.42579 -234.88794,677.70827 C -226.1661,674.32238 -234.24891,666.5859 -228.26294,662.23952 C -226.2838,665.97469 -230.0215,671.67889 -227.16919,675.52077 C -228.32369,687.43448 -231.76817,698.21621 -235.23169,709.20827 C -231.58384,711.83742 -233.21847,718.43243 -227.95044,718.36452 C -223.8854,719.28615 -224.6561,714.40169 -222.07544,712.92702 C -219.46569,709.27917 -221.16007,701.18253 -216.51294,700.83327 C -216.38683,699.74669 -215.8859,699.16762 -215.57544,698.33327 C -216.22547,698.25569 -216.86742,698.39924 -217.01294,697.73952 C -218.10924,695.84771 -216.79786,693.82938 -215.57544,692.64577 L -213.20044,672.30202 C -212.68625,650.63809 -206.44685,626.81503 -204.41919,605.36452 C -201.55718,593.84859 -200.71736,580.99537 -195.57544,570.61452 C -193.78062,572.14742 -195.85924,574.76364 -194.76294,576.64577 C -200.06009,597.96047 -201.07791,618.23366 -203.23169,640.77077 L -201.35669,643.61452 C -199.31934,644.94366 -196.24741,644.89433 -194.48169,642.89577 C -185.06132,612.40323 -187.95506,578.54098 -177.98169,548.98952 C -175.63387,553.43292 -179.8335,557.54286 -178.38794,562.08327 C -177.12672,570.12598 -187.19085,583.20737 -174.76294,585.73952 C -172.63826,580.5103 -163.81616,578.24948 -165.66919,571.45827 C -170.51036,567.83955 -163.70014,565.76359 -164.54419,561.70827 C -171.45182,556.97386 -160.46508,553.1873 -164.76294,548.52077 C -160.0479,519.02754 -156.7107,491.8013 -149.07544,463.52077 C -147.6687,455.13848 -146.45029,446.50756 -140.79419,441.23952 C -137.63143,447.9628 -130.16174,453.44699 -129.91919,460.92702 C -118.50026,468.37795 -112.75886,483.28939 -99.981689,488.48952 C -94.238279,490.02238 -89.514339,487.04903 -85.575439,483.33327 C -84.867209,481.00486 -84.269449,477.77965 -81.106689,477.05202 C -71.230329,452.09918 -53.943494,431.29286 -40.137939,408.55202 L -39.762939,409.23952 C -43.682436,414.70159 -41.424724,423.53817 -44.044189,429.14577 C -53.289934,473.2498 -63.797397,520.68992 -69.919189,566.23952 C -70.792339,570.08137 -75.753499,575.21615 -68.981689,577.30202 C -70.242919,586.36342 -70.829129,595.30044 -72.575439,602.77077 C -68.539519,607.84476 -61.707652,607.32574 -56.575439,610.33327 C -54.062692,607.54889 -50.737601,605.52412 -49.262939,602.17702 C -42.462033,573.58602 -33.82465,545.83961 -23.919189,518.92702 C -22.163176,513.203 -22.993091,505.23326 -18.200439,501.61452 L -14.356689,508.42702 C -12.241712,524.23114 3.3787075,533.27366 17.174561,537.27077 C 33.754809,536.10657 51.217446,536.59236 63.955811,523.14577 C 75.452355,516.58741 82.735382,504.90805 90.487061,494.61452 L 91.237061,495.80202 C 88.937753,510.01504 86.060663,521.52679 82.112061,534.89577 C 84.760634,540.44515 78.73306,552.65894 89.987061,551.98952 C 101.51271,547.17749 99.710545,532.5254 104.58081,522.55202 C 107.28759,495.25136 116.92276,470.47104 121.98706,443.64577 L 123.67456,442.30202 L 144.83081,469.95827 C 153.2228,480.78538 160.98663,493.31658 171.29956,500.86452 C 177.99375,499.88463 172.26182,507.97227 178.39331,508.02077 L 180.14331,506.05202 C 185.74121,508.89462 185.19136,519.35031 192.48706,516.89577 C 193.8647,514.43152 193.8358,510.91496 191.92456,508.48952 C 194.64104,477.24026 195.79746,449.96039 201.70581,419.73952 C 205.45067,377.63402 213.98797,335.87333 226.58081,298.95827 C 224.57316,296.77721 221.57008,294.99046 218.64331,295.08327 z M 286.01831,371.55202 C 275.03241,371.7317 264.21972,378.93376 254.92456,385.73952 C 252.59614,388.75675 255.31163,392.15375 257.73706,393.95827 L 255.04956,426.73952 C 253.96297,428.59256 251.81742,428.13075 250.08081,427.92702 C 238.57457,432.74877 254.06373,438.90604 250.58081,446.39577 C 255.16003,454.16685 249.25841,463.56628 249.83081,471.95827 L 248.58081,473.36452 C 245.28222,490.52688 247.30503,509.17112 241.01831,525.77077 C 241.57132,528.47755 242.24434,532.0511 246.01831,531.61452 C 252.33414,530.14955 254.25893,524.88471 256.39331,519.64577 C 259.97324,513.26205 257.1128,503.96037 261.08081,498.05202 L 265.20581,452.67702 L 267.08081,449.86452 C 271.33017,451.00935 275.46421,453.2138 279.11206,455.83327 C 296.711,468.60073 313.80231,483.71688 327.26831,501.92702 C 329.13103,504.75991 333.37219,504.39993 335.20581,501.77077 C 338.41708,496.64826 334.30934,492.21835 331.04956,488.11452 C 312.46105,470.62232 295.2473,446.94092 272.48706,435.11452 C 271.14821,433.42643 273.09338,431.91128 274.11206,430.70827 C 286.21982,422.68494 294.21875,410.21626 303.29956,399.86452 C 308.02429,393.18004 305.28238,384.54033 302.08081,378.02077 L 298.92456,375.02077 C 294.65156,372.49407 290.31714,371.48171 286.01831,371.55202 z M 335.26831,377.30202 C 334.48071,377.3565 333.65574,377.5216 332.79956,377.83327 C 317.53875,386.59392 308.9709,402.05245 305.92456,419.02077 C 302.16999,420.99993 299.07061,425.25723 300.48706,430.02077 C 308.26784,438.59709 303.94229,451.24602 311.67456,460.23952 C 316.37021,463.40229 321.01508,466.80303 327.04956,463.98952 C 346.15225,450.40711 353.92038,428.72367 368.70581,412.67702 C 371.38348,419.77867 365.90633,429.20923 371.73706,435.58327 C 373.91026,435.83551 375.88189,435.84644 377.70581,435.17702 L 396.45581,413.23952 L 401.01831,410.02077 C 404.60795,416.80228 396.90675,424.65991 404.58081,430.36452 C 407.20027,430.45185 409.89067,429.90096 411.26831,427.42702 C 413.51911,413.65057 415.70479,398.56448 415.54956,384.73952 C 413.52189,379.45208 405.56617,378.10699 401.26831,381.11452 C 394.12783,389.71995 391.463,401.46742 383.36206,409.08327 C 381.65455,399.24573 391.04249,389.78938 386.70581,379.86452 C 382.13631,377.59432 377.3464,377.25047 372.89331,379.80202 C 367.2178,398.67186 355.1417,414.18531 344.51831,430.27077 C 337.31962,437.55675 330.67305,447.74658 319.76831,449.11452 C 317.32348,445.54429 317.43212,440.72999 317.39331,437.20827 C 326.11516,430.10661 336.84465,426.32258 343.39331,416.98952 C 347.90463,408.30647 353.71844,396.0114 348.51831,385.98952 C 344.72372,382.28831 340.78152,376.92067 335.26831,377.30202 z M 285.51831,383.83327 C 287.16245,383.78355 288.86761,384.29182 290.67456,385.70827 C 292.28504,386.97921 294.54741,388.11913 294.51831,390.30202 C 288.13456,400.09106 278.72984,409.52807 268.73706,416.27077 C 268.03853,412.89456 269.54906,409.36439 270.95581,406.67702 C 269.80131,401.49629 269.58235,395.54851 271.29956,390.27077 C 276.1965,389.19388 280.58589,383.98243 285.51831,383.83327 z M 335.79956,392.70827 C 338.29493,392.68333 338.49311,396.21113 339.29956,397.64577 C 339.55182,408.63783 329.77326,415.63529 321.92456,420.86452 L 318.76831,421.61452 C 320.26237,410.60307 323.44323,398.22416 334.58081,392.92702 C 335.03922,392.76088 335.44308,392.71183 335.79956,392.70827 z M 55.955811,445.92702 C 59.914115,447.68304 59.987583,452.95911 61.549561,456.64577 C 64.24664,478.88211 54.167371,501.63811 34.987061,514.11452 C 31.407124,518.51912 25.617328,521.11983 19.893311,521.33327 C 12.684929,521.16833 11.317519,513.78881 9.2995605,508.52077 C 7.7763885,498.91605 12.065197,490.18777 13.549561,481.14577 C 16.130221,483.41596 22.323777,483.0482 23.924561,478.61452 C 29.871719,465.0515 43.149533,454.29961 55.955811,445.92702 z M 390.01831,532.55202 C 389.73921,532.54679 389.41944,532.61825 389.04956,532.73952 C 377.09704,537.49337 366.63886,546.80434 357.95581,555.45827 C 356.42293,559.22254 350.8631,558.14743 351.01831,562.55202 C 350.99891,564.53117 353.26558,565.63648 354.92456,564.52077 L 392.08081,538.98952 L 392.33081,536.83327 C 391.90636,535.44107 391.97198,532.58863 390.01831,532.55202 z M 188.01831,538.52077 C 141.44033,562.3094 99.237528,597.3557 52.455811,619.14577 C 52.252074,622.85185 49.50103,623.86218 46.580811,624.39577 L 47.830811,630.89577 C 54.738439,635.63994 61.89111,628.56649 68.080811,624.23952 C 77.957167,622.29915 81.092924,612.36489 89.455811,608.27077 C 100.36055,606.90282 108.92852,597.15146 119.01831,593.27077 C 120.87134,592.38788 123.58338,589.61566 125.45581,592.45827 C 123.40875,604.50783 119.91474,615.94978 117.23706,627.70827 C 106.96293,648.44085 101.83137,672.18954 94.205811,694.55202 C 82.942109,702.89547 73.525035,718.04444 57.643311,715.11452 C 51.909591,711.6122 45.553929,707.79247 42.362061,701.30202 C 39.276912,689.98009 43.940941,678.00682 49.393311,668.77077 C 54.244173,662.75571 60.382631,666.53008 66.174561,667.64577 C 68.755221,669.91596 71.670472,673.1176 71.049561,676.55202 C 69.157725,681.59689 65.081911,676.94847 61.987061,677.23952 C 58.49444,677.06491 54.94262,677.51977 52.643311,680.33327 C 50.421616,684.44681 47.743218,690.74558 51.643311,694.92702 C 54.505319,696.78003 59.691742,697.36278 62.893311,696.20827 C 69.364363,689.48501 81.12084,686.23382 80.674561,674.98952 C 81.004419,668.24683 78.16716,660.70069 71.705811,657.77077 C 63.013067,655.21918 53.78378,655.2561 46.643311,660.14577 C 32.80865,675.63943 29.248329,698.91011 33.924561,719.17702 C 40.046349,732.59452 52.296282,738.60985 64.549561,742.64577 C 70.681051,742.68457 76.804918,741.0072 82.955811,742.80202 C 85.75961,739.39672 91.411914,739.61276 93.643311,735.48952 C 106.69213,730.61929 115.00559,719.5022 120.48706,708.08327 C 124.67821,702.20402 125.81512,694.2402 130.54956,689.30202 L 131.14331,689.80202 C 130.87166,699.85304 124.8272,706.40287 119.83081,713.70827 C 117.78375,718.10314 114.8436,722.80471 118.26831,727.36452 C 119.81088,727.316 121.68591,728.17089 123.11206,727.23952 C 129.37937,712.83248 138.13966,699.38728 142.33081,683.86452 C 146.7936,675.60836 157.09303,671.95817 165.17456,672.23952 L 171.83081,701.92702 C 172.10246,707.23385 172.07776,713.15265 174.58081,718.05202 C 176.94802,720.29311 180.19,716.93562 182.23706,720.02077 C 176.10558,739.03616 168.93649,757.51673 165.70581,777.95827 C 169.29545,788.67867 160.39227,805.18667 172.39331,811.39577 C 181.64874,807.19494 186.16094,796.53287 194.17456,789.77077 C 195.5522,781.6019 205.39902,778.14692 204.48706,768.83327 C 221.5815,734.62499 236.13563,695.54855 233.48706,653.80202 C 247.768,636.35829 260.89965,617.71734 276.39331,601.30202 C 273.00741,611.66344 262.8182,619.92811 255.86206,628.98952 C 253.59187,631.57016 254.17571,636.22054 257.01831,638.08327 C 262.64532,638.73326 268.36984,640.491 270.73706,633.30202 C 275.79166,634.9804 277.1697,628.79876 281.76831,628.89577 C 285.07661,634.32875 273.88416,638.06381 278.42456,644.30202 C 282.43137,645.84457 285.37178,641.15689 288.33081,640.17702 C 281.4814,671.18371 270.58457,701.26678 253.95581,727.64577 C 250.5408,732.49665 247.80758,740.94233 240.42456,740.30202 C 237.44614,735.80043 241.71683,731.04421 241.01831,725.70827 C 249.66255,700.17332 259.74759,675.23527 275.58081,653.83327 C 276.89054,652.00937 278.96836,649.38901 277.01831,647.17702 C 274.39885,645.12993 271.50809,647.44031 269.95581,649.45827 C 257.92568,670.21024 243.8087,689.85948 236.29956,713.11452 C 233.1271,719.75049 232.85478,728.05737 229.08081,734.20827 C 227.05314,740.33004 224.71585,749.03286 229.79956,754.42702 C 233.24367,758.76368 237.55572,755.54395 241.45581,754.02077 C 258.91893,737.60544 269.07536,716.2267 278.33081,694.70827 C 284.53021,673.28685 295.93017,652.42337 295.29956,629.33327 C 302.37212,615.4695 316.21967,605.65875 325.73706,593.39577 C 332.67381,584.54779 342.72751,578.92491 348.39331,569.70827 C 345.12382,563.8484 340.26348,572.05529 335.67456,571.95827 C 322.50933,589.08179 304.80947,603.68807 292.08081,621.08327 C 288.94714,623.35347 285.17127,620.06662 282.29956,618.42702 C 286.01532,608.97752 293.22515,601.48915 299.42456,593.42702 C 300.87982,588.33359 311.16379,586.89266 305.08081,580.48952 C 303.18898,579.83952 300.23469,580.5843 297.79956,580.73952 C 297.45032,580.041 296.59471,579.72041 296.92456,578.89577 C 303.53143,570.88214 310.43513,562.68533 317.08081,554.45827 C 299.79234,557.9412 289.89494,575.25634 276.20581,585.52077 C 268.31831,589.43057 258.78787,590.29625 252.26831,597.42702 C 251.31754,599.9689 252.64515,601.62679 253.51831,603.48952 C 256.06016,606.1963 258.61014,601.44563 260.98706,603.67702 C 251.45026,617.92886 237.79663,629.75934 227.86206,643.73952 C 226.3583,643.56491 224.84194,643.17629 223.86206,642.17702 C 224.32774,636.30747 228.85861,631.14318 232.48706,626.30202 C 232.42885,617.2988 243.61206,619.43513 243.61206,611.77077 C 241.07991,609.06399 240.38848,603.52403 235.79956,603.42702 C 216.67746,609.54883 196.92769,613.42638 179.01831,624.30202 C 177.20409,626.71778 179.13424,629.10514 180.42456,631.23952 C 193.52188,635.59558 204.22214,626.31365 215.89331,623.92702 L 216.89331,624.92702 C 211.31482,635.23027 204.05952,644.71243 197.26831,654.23952 C 192.73761,657.43142 197.05355,661.86108 197.95581,665.48952 C 199.27525,667.39106 202.36034,667.11145 204.17456,666.64577 C 209.52991,661.99861 211.65634,651.07083 220.45581,652.73952 C 209.34733,669.22273 199.53712,686.06869 189.04956,702.83327 C 183.87854,692.59798 183.49664,680.7229 180.79956,669.89577 C 177.79204,663.62845 185.63577,662.11502 188.64331,660.70827 C 189.90453,659.32094 188.82999,657.19907 188.11206,655.80202 C 185.96798,651.62058 182.39982,655.78945 179.23706,654.77077 C 176.26833,644.35111 175.87356,632.70728 170.79956,623.36452 C 164.01805,619.50323 161.40154,627.09616 156.42456,630.23952 C 151.97147,640.47481 140.57664,649.68048 143.20581,661.17702 C 140.10126,665.20324 141.21484,674.73267 133.98706,672.80202 C 133.49227,663.76 136.91159,654.97424 137.01831,646.42702 L 136.33081,644.58327 C 137.81517,622.1723 146.86637,602.82401 149.89331,580.36452 C 150.86348,577.62863 155.35899,578.37225 154.89331,574.80202 C 154.68957,572.82286 152.57253,572.35848 151.61206,571.14577 C 155.93903,565.94561 162.77918,563.45713 168.58081,560.61452 C 175.97354,553.5711 187.82462,553.63845 193.11206,543.92702 C 192.04487,541.84116 190.60867,538.82152 188.01831,538.52077 z M 564.86206,572.92702 C 554.38421,574.3532 550.52971,585.10221 545.73706,592.42702 C 539.85783,601.61456 538.87711,613.98038 529.89331,621.48952 C 525.72156,619.69472 526.63695,613.69334 523.29956,610.23952 C 521.69877,608.95889 519.40351,609.7769 517.98706,610.70827 C 506.3838,625.81383 499.76538,643.25333 489.83081,658.98952 L 486.29956,661.20827 L 486.45581,659.67702 C 490.65666,636.48988 503.10197,616.21662 519.36206,598.80202 C 520.04117,596.68705 523.34989,594.45152 521.20581,592.23952 C 516.1221,588.7954 514.58333,596.28549 510.51831,597.33327 C 498.28444,614.11727 486.59943,631.87762 476.67456,649.58327 C 474.03568,642.045 473.47409,633.65204 473.58081,625.11452 L 471.95581,621.86452 C 469.91845,620.53536 466.83682,620.59442 465.08081,622.58327 C 465.0808,639.68741 465.05227,657.21706 472.58081,671.89577 C 482.05941,675.17492 478.27102,662.47144 485.79956,661.80202 C 484.8391,668.26339 482.73788,674.83506 483.45581,681.92702 C 485.15361,684.32335 488.42927,682.50616 490.33081,681.17702 C 496.51082,667.42965 502.34088,653.17621 510.39331,640.30202 C 511.85828,640.91325 515.70643,640.02109 516.98706,642.14577 C 519.89757,654.98117 511.96698,666.80415 516.92456,678.98952 C 518.37983,679.60075 521.4888,681.06477 522.64331,678.55202 C 526.68893,664.33901 526.31652,650.67467 527.11206,636.08327 L 529.70581,632.64577 C 531.91779,638.16607 528.66468,645.48874 532.20581,650.70827 C 536.52308,655.16136 544.00037,653.16782 548.98706,651.77077 C 560.66794,641.71007 574.36623,632.96596 586.86206,623.45827 L 587.04956,621.95827 C 586.51596,621.02691 585.73419,620.05222 584.70581,619.48952 C 574.19885,611.69904 571.31708,627.35985 564.48706,631.39577 C 557.90929,635.24738 552.07177,643.99269 544.17456,644.17702 C 539.68265,637.52161 544.46827,628.2368 545.76831,620.70827 C 557.70144,608.50352 568.19042,595.24113 572.08081,578.58327 C 572.32336,574.66378 568.09274,573.29569 564.86206,572.92702 z M 467.36206,574.39577 C 459.688,574.3861 460.23333,584.77077 452.54956,584.77077 C 436.77454,611.45054 426.12973,641.12933 412.79956,669.17702 C 407.14346,672.69875 401.20923,678.59115 394.61206,680.67702 C 393.43816,679.45462 392.90873,678.09347 391.98706,676.67702 C 389.68774,673.77619 392.87443,670.83622 394.45581,668.61452 C 397.76409,664.60769 401.98771,666.18847 406.23706,667.33327 C 410.80656,665.68397 411.44172,660.26247 411.67456,656.33327 C 401.10939,654.68398 391.0446,662.09446 383.76831,670.02077 C 379.08238,680.21728 387.4114,687.95497 388.08081,697.23952 C 385.86883,699.40301 384.73836,703.44234 381.08081,702.80202 C 375.65755,700.41541 380.48786,694.83876 378.23706,691.52077 C 379.35275,689.43488 383.01759,687.90106 382.01831,685.14577 C 375.31442,684.37932 371.7357,692.7371 366.48706,696.52077 C 361.33546,697.44241 355.71936,706.22773 350.95581,699.98952 C 350.85879,695.15805 353.40231,691.94558 355.36206,688.23952 C 365.51006,683.91254 374.24598,674.83432 379.45581,665.80202 C 378.09757,662.34822 376.29176,656.88474 370.95581,657.58327 C 368.12291,659.22287 364.02116,658.76845 362.08081,662.27077 C 353.49479,673.99048 343.88326,685.36074 338.79956,699.02077 C 341.71979,702.21261 341.09218,707.4156 345.48706,709.23952 C 353.08352,711.8687 361.05297,711.24825 366.61206,704.86452 C 367.78598,706.10636 368.06049,707.43826 367.64331,709.14577 C 367.13882,711.71671 369.78262,713.54977 371.95581,713.80202 C 374.84691,707.78696 379.10832,714.41976 383.58081,713.61452 C 398.32744,711.15028 390.09663,691.34846 403.17456,688.02077 L 404.14331,689.23952 L 397.04956,718.45827 C 403.77285,726.68531 403.07963,711.93131 409.42456,711.98952 C 412.31567,700.26013 417.05133,689.41366 421.17456,678.48952 C 423.17312,668.62286 434.94698,667.35712 441.61206,660.89577 C 443.37777,668.3176 434.88874,675.46108 438.64331,682.70827 C 441.33069,684.09559 444.68234,683.59889 447.04956,682.11452 L 452.95581,663.30202 C 455.57527,655.70559 466.61304,649.29113 460.83081,640.52077 C 457.78446,640.38492 452.96529,638.51508 450.54956,642.39577 C 451.19958,651.90343 440.25265,649.7653 435.79956,656.05202 C 434.22787,656.31393 431.95202,659.10143 430.48706,656.52077 C 437.48202,637.81585 445.25541,619.64655 454.26831,602.27077 C 458.16841,593.30635 464.97943,585.53061 468.26831,576.05202 L 467.36206,574.39577 z M 562.86206,580.58327 C 560.95081,589.56709 554.97048,597.87561 550.08081,606.08327 L 546.17456,607.61452 C 548.65821,597.59261 556.02234,588.56779 562.86206,580.58327 z M -175.57544,589.67702 C -175.8092,589.67295 -176.02921,589.70132 -176.29419,589.73952 C -180.46593,591.67016 -180.20944,596.96128 -182.16919,600.67702 C -180.90797,608.71975 -188.23483,615.10619 -185.45044,623.33327 C -183.00561,626.8938 -177.52198,626.87597 -173.26294,628.02077 C -171.71066,625.99311 -169.56778,624.50564 -169.88794,621.61452 C -172.07082,617.64652 -172.89426,613.37257 -173.26294,608.95827 C -177.81305,604.69921 -171.6749,600.79486 -170.76294,596.73952 C -171.92715,594.34744 -172.069,589.73807 -175.57544,589.67702 z M 389.64331,600.11452 C 376.05119,607.74008 361.90381,614.23762 347.48706,619.58327 C 344.32429,616.60485 348.41842,613.53165 347.48706,610.14577 C 346.15793,608.45767 345.28759,606.39557 342.58081,606.95827 C 337.08964,610.92628 336.84877,618.78584 334.83081,624.92702 C 327.09854,633.00855 314.8182,634.89687 307.86206,643.95827 C 308.0949,645.74339 309.73727,648.55628 312.14331,648.61452 C 316.5964,646.05326 322.34545,647.60051 326.64331,644.58327 C 327.89483,648.89084 325.11227,654.0438 324.54956,659.02077 C 321.56143,665.9187 311.32841,669.103 305.92456,674.17702 C 307.37982,680.49284 313.85421,679.48098 317.70581,682.33327 C 314.97962,692.54918 313.95721,703.17259 310.01831,712.58327 C 310.49369,719.86926 306.89519,728.46597 313.70581,734.08327 C 315.3357,735.15046 318.18396,735.24229 319.01831,733.58327 C 322.69526,713.18054 329.44727,694.4668 332.29956,673.52077 C 344.72747,664.64369 359.11706,659.49457 372.33081,651.36452 L 373.42456,649.33327 C 368.84534,643.53163 379.11104,643.83161 378.95581,639.42702 C 377.91773,637.11801 375.79403,634.67061 373.17456,634.58327 C 361.69742,640.93789 350.71125,648.66825 338.48706,652.08327 C 338.31243,645.92267 339.09923,637.25939 344.86206,632.86452 L 388.14331,613.08327 C 389.56947,610.18245 391.205,607.30393 393.45581,604.92702 C 392.78639,603.1031 392.26276,600.19215 389.64331,600.11452 z M 465.58081,603.14577 C 462.51506,604.9891 462.08817,608.66839 462.61206,611.80202 C 462.25309,614.82896 464.91244,618.39922 468.70581,617.73952 C 472.73203,615.12976 474.57356,610.75298 473.76831,606.27077 C 471.61453,604.05878 468.83087,603.31072 465.58081,603.14577 z M -70.981689,609.14577 C -71.235149,609.14099 -71.514049,609.15855 -71.794189,609.20827 C -73.550199,609.21797 -74.696449,611.54714 -73.794189,613.17702 L -69.075439,614.14577 C -68.541849,613.34053 -66.981589,613.05682 -67.262939,611.70827 C -68.086379,610.46039 -69.207489,609.1792 -70.981689,609.14577 z M 129.92456,616.67702 C 128.77006,628.59075 127.54759,639.1771 123.98706,651.05202 C 123.47287,676.41232 114.53359,704.53592 95.799561,722.55202 C 88.503864,719.31164 88.614162,729.64363 82.705811,729.61452 C 76.079534,731.92352 66.865484,732.17077 60.268311,728.55202 L 60.393311,727.48952 C 72.782414,724.52081 83.613072,716.10734 95.924561,712.05202 C 110.29282,701.41891 101.56077,681.99729 112.45581,669.23952 C 120.45973,653.04733 123.35649,633.66474 129.92456,616.67702 z M -74.731689,621.36452 C -76.080229,621.65557 -77.552969,623.02875 -77.106689,624.83327 C -76.359649,626.01688 -75.336769,626.78801 -73.794189,626.73952 C -72.591179,625.79845 -69.788679,626.08527 -70.137939,623.42702 C -70.613319,621.83594 -72.781639,621.58764 -74.731689,621.36452 z M 516.45581,627.86452 C 516.77596,628.77646 517.68232,630.18081 517.08081,631.64577 C 516.16884,631.97564 515.63166,631.03935 515.04956,630.30202 L 516.45581,627.86452 z M -75.481689,632.20827 C -81.672699,632.46506 -80.104499,643.96047 -81.700439,649.52077 C -79.614569,652.38277 -78.699589,655.78137 -75.012939,656.20827 C -64.777619,651.02754 -73.431439,640.59463 -72.325439,632.83327 C -73.558769,632.36152 -74.597259,632.17159 -75.481689,632.20827 z M 159.83081,649.92702 C 162.27564,653.48758 161.32295,658.00109 162.20581,661.83327 C 159.09156,664.09376 155.81158,665.90976 152.29956,665.95827 C 151.09654,659.22526 157.24045,655.31147 159.83081,649.92702 z M 367.39331,665.48952 C 368.509,665.39249 369.34031,665.94286 369.89331,666.86452 C 369.30148,670.0855 368.06914,673.01413 364.51831,673.48952 L 362.79956,673.30202 C 362.07194,670.14896 365.22982,667.21642 367.39331,665.48952 z M 221.92456,672.42702 C 225.15523,684.41832 217.26863,695.77617 219.39331,707.86452 C 215.72605,726.2881 208.77755,742.81889 200.98706,759.02077 C 196.91235,769.73145 191.92185,780.78074 184.39331,789.11452 C 181.74474,792.97581 179.31862,798.83409 174.20581,799.55202 C 170.34452,777.84923 183.82919,759.67043 185.36206,738.80202 C 195.91754,715.68284 207.87646,693.61559 221.92456,672.42702 z"
       id="path2408"
       style="fill:#231f20;fill-opacity:1;fill-rule:nonzero;stroke:none" />
  </g>
</svg>
