<svg xmlns="http://www.w3.org/2000/svg" viewBox="0 0 1400 507" width="1400" height="507">
<g fill-rule="evenodd" stroke="none">
<path d="M 1191.00 495.50 L 1189.00 353.50 L 1177.50 375.00 L 1158.50 401.00 L 1138.00 422.50 L 1116.00 440.50 L 1094.00 454.50 L 1064.00 468.50 L 1030.00 478.50 L 1003.00 482.50 L 963.00 482.50 L 936.00 478.50 L 902.00 468.50 L 872.00 454.50 L 846.00 437.50 L 815.50 410.00 L 794.50 384.00 L 778.00 355.50 L 761.50 383.00 L 742.50 407.00 L 718.00 430.50 L 685.00 453.50 L 653.00 468.50 L 614.00 479.50 L 593.00 482.50 L 536.00 480.50 L 506.00 473.50 L 484.00 465.50 L 465.00 456.50 L 438.00 439.50 L 398.50 403.00 L 384.50 385.00 L 368.00 357.50 L 367.00 495.50 L 90.00 215.50 L 89.50 484.00 L 6.00 494.50 L 5.50 5.00 L 8.00 4.50 L 284.00 282.50 L 284.50 18.00 L 287.00 16.50 L 367.50 5.00 L 368.00 143.50 L 378.50 124.00 L 394.50 102.00 L 429.00 67.50 L 473.00 39.50 L 510.00 25.50 L 531.00 20.50 L 554.00 17.50 L 607.00 19.50 L 650.00 30.50 L 683.00 45.50 L 713.00 65.50 L 741.50 92.00 L 758.50 113.00 L 778.00 144.50 L 797.50 112.00 L 819.50 86.00 L 845.00 63.50 L 876.00 43.50 L 908.00 29.50 L 937.00 21.50 L 965.00 17.50 L 1002.00 17.50 L 1034.00 22.50 L 1058.00 29.50 L 1092.00 44.50 L 1113.00 57.50 L 1140.00 79.50 L 1157.50 98.00 L 1175.50 122.00 L 1189.00 146.50 L 1190.00 17.50 L 1274.00 4.50 L 1276.00 50.50 L 1309.00 27.50 L 1337.00 14.50 L 1371.00 5.50 L 1397.00 3.50 L 1398.50 95.00 L 1351.00 97.50 L 1336.00 100.50 L 1316.00 108.50 L 1307.00 114.50 L 1294.50 128.00 L 1281.50 157.00 L 1274.50 211.00 L 1274.50 484.00 L 1191.00 495.50 Z" fill="#000"/>
<path d="M 583.50 398.00 L 615.00 392.50 L 643.00 380.50 L 666.00 364.50 L 684.50 346.00 L 702.50 319.00 L 713.50 291.00 L 718.50 264.00 L 718.50 236.00 L 713.50 209.00 L 698.50 174.00 L 683.50 153.00 L 667.00 136.50 L 651.00 124.50 L 626.00 111.50 L 598.00 103.50 L 564.00 101.50 L 542.00 104.50 L 514.00 113.50 L 492.00 125.50 L 465.50 148.00 L 448.50 170.00 L 433.50 201.00 L 426.50 232.00 L 425.50 257.00 L 428.50 281.00 L 436.50 307.00 L 452.50 336.00 L 475.00 361.50 L 495.00 376.50 L 521.00 389.50 L 552.00 397.50 L 583.50 398.00 Z" fill="#000"/>
<path d="M 994.50 398.00 L 1026.00 392.50 L 1052.00 381.50 L 1078.00 363.50 L 1093.50 348.00 L 1110.50 324.00 L 1123.50 294.00 L 1129.50 262.00 L 1129.50 238.00 L 1123.50 206.00 L 1111.50 178.00 L 1097.50 157.00 L 1079.00 137.50 L 1057.00 121.50 L 1034.00 110.50 L 1002.00 102.50 L 975.00 101.50 L 948.00 105.50 L 927.00 112.50 L 900.00 127.50 L 874.50 150.00 L 857.50 173.00 L 846.50 195.00 L 838.50 223.00 L 836.50 261.00 L 839.50 282.00 L 848.50 310.00 L 862.50 335.00 L 887.00 362.50 L 909.00 378.50 L 937.00 391.50 L 963.00 397.50 L 994.50 398.00 Z" fill="#000"/>
</g></svg>