<?xml version="1.0" encoding="utf-8"?>
<!-- Generator: Adobe Illustrator 23.0.1, SVG Export Plug-In . SVG Version: 6.00 Build 0)  -->
<svg version="1.1" id="Swatch_xAE_2010" xmlns="http://www.w3.org/2000/svg" xmlns:xlink="http://www.w3.org/1999/xlink" x="0px"
	 y="0px" viewBox="0 0 222.24 36.84" enable-background="new 0 0 222.24 36.84" xml:space="preserve">
<g>
	<g>
		<path d="M164.41,0.56v9.64c2.27-2.27,5.5-3.4,8.9-3.4c3.8,0,6.86,1.19,9.18,3.52c2.38,2.44,3.46,5.67,3.46,9.81V36h-5.1V20.12
			c0-2.49-0.51-4.54-1.81-6.07c-1.42-1.64-3.46-2.44-5.84-2.44c-2.55,0-4.76,0.85-6.29,2.32c-1.64,1.59-2.5,3.86-2.5,6.46v15.59
			h-5.1V0.56H164.41z"/>
		<path d="M116.22,35.99c-2.32,0-4.48-0.91-5.95-2.44c-1.42-1.47-2.27-3.57-2.27-5.78V0.56h5.1v7.09h9.07v4.82h-9.07v15.31
			c0,0.79,0.23,1.64,0.68,2.21c0.57,0.74,1.47,1.19,2.44,1.19h5.95V36h-5.95V35.99z"/>
		<path d="M53.29,7.65v19.56c0,1.47,0.4,2.72,1.25,3.57c0.79,0.85,1.98,1.25,3.29,1.25c1.3,0,2.49-0.4,3.29-1.25
			c0.85-0.85,1.25-2.1,1.25-3.57V7.65h5.1v19.56c0,2.89-0.91,5.22-2.67,6.97c-1.76,1.76-4.2,2.66-6.97,2.66
			c-2.78,0-5.22-0.91-7.09-2.83c-1.87,1.93-4.31,2.83-7.09,2.83s-5.22-0.91-6.97-2.66c-1.76-1.76-2.66-4.08-2.66-6.97V7.65h5.1
			v19.56c0,1.47,0.4,2.72,1.25,3.57c0.79,0.85,1.98,1.25,3.29,1.25c1.3,0,2.49-0.4,3.29-1.25c0.85-0.85,1.25-2.1,1.25-3.57V7.65
			H53.29z"/>
		<path d="M0.85,35.99v-4.82h18.71c1.02,0,1.93-0.34,2.61-1.02c0.62-0.62,1.08-1.53,1.08-2.66s-0.45-2.04-1.08-2.67
			c-0.68-0.68-1.59-1.02-2.61-1.02H8.5c-2.21,0-4.31-0.85-5.84-2.21C1.07,20.17,0,18.13,0,15.75s1.02-4.48,2.61-5.9
			c1.53-1.42,3.69-2.21,5.9-2.21h18.43v4.82H8.5c-0.96,0-1.76,0.34-2.38,0.91C5.5,13.94,5.1,14.79,5.1,15.75
			c0,0.96,0.4,1.81,1.02,2.38s1.42,0.85,2.38,0.85h11.06c2.49,0,4.65,0.85,6.18,2.32c1.64,1.53,2.61,3.69,2.61,6.18
			s-0.96,4.65-2.61,6.18c-1.53,1.47-3.68,2.32-6.18,2.32H0.85V35.99z"/>
		<path d="M92.41,35.99c-1.53,0.57-3.12,0.85-4.82,0.85c-4.03,0-7.77-1.53-10.38-4.14c-2.66-2.66-4.08-6.41-4.08-10.43
			c0-4.03,1.47-7.77,4.08-10.43c2.66-2.66,6.12-4.2,10.38-4.2h12.47v28.35h-5.1V12.47h-7.37c-2.78,0-5.16,1.08-6.86,2.89
			c-1.64,1.76-2.49,4.25-2.49,6.92c0,2.66,0.85,5.16,2.49,6.92c1.7,1.81,4.19,2.84,6.86,2.84c1.76,0,3.4-0.4,4.82-1.13V35.99z"/>
		<path d="M130.96,21.82c0,2.78,1.02,5.33,2.78,7.14c1.81,1.93,4.37,3.06,7.14,3.06c1.87,0,3.63-0.45,5.1-1.36
			c1.53-0.91,2.66-2.27,3.57-3.91l4.37,2.49c-1.3,2.38-3.17,4.31-5.44,5.67c-2.15,1.3-4.88,1.93-7.6,1.93
			c-4.14,0-7.99-1.64-10.71-4.37c-2.72-2.72-4.31-6.52-4.31-10.66s1.59-7.94,4.31-10.66s6.58-4.37,10.71-4.37
			c2.72,0,5.44,0.62,7.6,1.93c2.27,1.36,4.14,3.29,5.44,5.67l-4.37,2.49c-0.91-1.64-2.04-3-3.57-3.91c-1.47-0.91-3.23-1.36-5.1-1.36
			c-2.78,0-5.33,1.13-7.14,3.06C131.98,16.49,130.96,19.04,130.96,21.82z"/>
		<path d="M182.77,3.17c0-1.76,1.42-3.17,3.17-3.17c1.76,0,3.17,1.42,3.17,3.17c0,1.76-1.42,3.17-3.17,3.17S182.77,4.92,182.77,3.17
			L182.77,3.17z M183.34,3.17c0,1.47,1.19,2.61,2.61,2.61s2.61-1.13,2.61-2.61c0-1.47-1.19-2.61-2.61-2.61S183.34,1.69,183.34,3.17
			L183.34,3.17z M185.72,3.34h-0.51v1.47h-0.57v-3.4h1.76c0.68,0,1.02,0.4,1.02,0.96c0,0.57-0.34,0.96-1.02,0.96l1.02,1.47h-0.68
			L185.72,3.34z M186.4,2.83c0.28,0,0.45-0.17,0.45-0.45s-0.17-0.45-0.45-0.45h-1.19v0.91h1.19V2.83z"/>
	</g>
	<g>
		<rect x="193.89" y="7.65" fill="#FF0000" width="28.35" height="28.35"/>
		<path fill="#FFFFFF" d="M211.46,18.42v-7.94h-6.8v7.94h-7.94v6.8h7.94v7.94h6.8v-7.94h7.94v-6.8H211.46z"/>
	</g>
</g>
</svg>
