<svg width="1923" height="276" viewBox="0 0 1923 276" fill="none" xmlns="http://www.w3.org/2000/svg">
<path d="M100.6 276C71.5333 276 47.5333 266.133 28.6 246.4C9.66667 226.667 0.2 202 0.2 172.4C0.2 142.8 9.53333 118.267 28.2 98.8C47.1333 79.3333 71.2667 69.6 100.6 69.6C133.933 69.6 158.733 81.2 175 104.4L147.4 129.6C136.733 114.667 121.8 107.2 102.6 107.2C85.2667 107.2 71.1333 113.333 60.2 125.6C49.2667 137.867 43.8 153.467 43.8 172.4C43.8 191.333 49.2667 207.067 60.2 219.6C71.1333 232.133 85.2667 238.4 102.6 238.4C121.533 238.4 136.467 230.533 147.4 214.8L175 241.2C158.467 264.4 133.667 276 100.6 276ZM289.559 75.2V114.4C270.093 114.4 256.893 118.667 249.959 127.2C243.293 135.467 239.959 150.133 239.959 171.2V272H197.559V164.8C197.559 133.333 204.626 110.533 218.759 96.4C233.159 82.2667 256.759 75.2 289.559 75.2ZM398.2 69.6C429.133 69.6 453 79.0667 469.8 98C486.867 116.667 495.4 140.133 495.4 168.4V272H452.6V243.6C447.267 252.933 439.4 260.667 429 266.8C418.6 272.933 407 276 394.2 276C365.4 276 342.467 266.133 325.4 246.4C308.6 226.4 300.2 201.733 300.2 172.4C300.2 143.333 309 118.933 326.6 99.2C344.467 79.4667 368.333 69.6 398.2 69.6ZM398.2 238.4C414.733 238.4 427.933 232.533 437.8 220.8C447.667 208.8 452.733 193.2 453 174V172.4C453 152.4 448.333 136.533 439 124.8C429.667 113.067 416.067 107.2 398.2 107.2C381.4 107.2 368.067 113.2 358.2 125.2C348.6 137.2 343.8 152.933 343.8 172.4C343.8 191.867 348.6 207.733 358.2 220C368.067 232.267 381.4 238.4 398.2 238.4ZM550.084 89.6C566.618 76.2667 587.818 69.6 613.684 69.6C639.551 69.6 660.618 76.2667 676.884 89.6C693.418 102.667 701.684 121.333 701.684 145.6V272H659.284V149.6C659.284 135.733 655.284 125.2 647.284 118C639.284 110.8 628.084 107.2 613.684 107.2C599.284 107.2 588.084 110.8 580.084 118C572.084 125.2 568.084 135.733 568.084 149.6V272H525.684V145.6C525.684 121.333 533.818 102.667 550.084 89.6ZM732.734 272V7.99999H775.134V272H732.734ZM826.734 166.8L923.534 272H872.734L800.734 194.8C794.334 187.6 789.934 182.267 787.534 178.8C785.401 175.333 784.334 171.467 784.334 167.2C784.334 162.4 785.801 158 788.734 154C791.934 150 797.934 143.733 806.734 135.2L868.334 75.2H921.934L826.734 166.8ZM1016.83 155.2C1038.69 160.267 1055.23 167.067 1066.43 175.6C1077.89 184.133 1083.63 197.467 1083.63 215.6C1083.63 233.2 1076.03 247.733 1060.83 259.2C1045.63 270.4 1026.43 276 1003.23 276C967.228 276 939.495 263.333 920.028 238L947.628 212.8C961.228 229.867 979.228 238.4 1001.63 238.4C1027.23 238.4 1040.03 231.333 1040.03 217.2C1040.03 210.267 1036.69 205.067 1030.03 201.6C1023.63 197.867 1011.23 194.133 992.828 190.4C949.628 181.867 928.028 161.333 928.028 128.8C928.028 111.467 935.228 97.3333 949.628 86.4C964.295 75.2 983.495 69.6 1007.23 69.6C1024.03 69.6 1039.23 72.9333 1052.83 79.6C1066.69 86.2667 1077.09 94.5333 1084.03 104.4L1056.43 131.2C1044.43 115.2 1028.03 107.2 1007.23 107.2C998.161 107.2 989.895 109.067 982.428 112.8C975.228 116.533 971.628 121.867 971.628 128.8C971.628 136 974.828 141.2 981.228 144.4C987.628 147.6 999.495 151.2 1016.83 155.2ZM1191.29 112.8H1151.29V206.4C1151.29 217.333 1154.09 224.8 1159.69 228.8C1165.29 232.533 1175.82 234.4 1191.29 234.4V272C1159.82 272 1138.22 268.4 1126.49 261.2C1114.75 253.733 1108.89 238 1108.89 214V33.6H1151.29V75.2H1191.29V112.8ZM1350.63 75.2H1393.03V200C1393.03 224.533 1385.29 243.333 1369.83 256.4C1354.36 269.467 1333.29 276 1306.63 276C1279.69 276 1258.49 269.467 1243.03 256.4C1227.56 243.333 1219.83 224.533 1219.83 200V75.2H1262.23V196C1262.23 209.867 1266.09 220.4 1273.83 227.6C1281.83 234.8 1292.76 238.4 1306.63 238.4C1320.49 238.4 1331.29 234.8 1339.03 227.6C1346.76 220.4 1350.63 209.867 1350.63 196V75.2ZM1569.74 7.99999H1612.14V173.6C1612.14 206.133 1603.74 231.333 1586.94 249.2C1570.41 267.067 1546.94 276 1516.54 276C1486.94 276 1463.34 266.267 1445.74 246.8C1428.14 227.067 1419.34 202.533 1419.34 173.2C1419.34 143.867 1427.74 119.333 1444.54 99.6C1461.34 79.6 1484.01 69.6 1512.54 69.6C1538.14 69.6 1557.21 78.8 1569.74 97.2V7.99999ZM1476.94 220.4C1486.54 232.4 1499.74 238.4 1516.54 238.4C1533.34 238.4 1546.41 232.4 1555.74 220.4C1565.34 208.4 1570.14 192.667 1570.14 173.2V171.6C1569.87 152.4 1564.94 136.933 1555.34 125.2C1546.01 113.2 1533.07 107.2 1516.54 107.2C1499.74 107.2 1486.54 113.333 1476.94 125.6C1467.61 137.6 1462.94 153.467 1462.94 173.2C1462.94 192.667 1467.61 208.4 1476.94 220.4ZM1668.08 57.2C1675.81 57.2 1682.48 54.4 1688.08 48.8C1693.68 42.9333 1696.48 36.1333 1696.48 28.4C1696.48 20.6667 1693.55 14 1687.68 8.39998C1682.08 2.79999 1675.55 -2.86102e-06 1668.08 -2.86102e-06C1660.35 -2.86102e-06 1653.55 2.79999 1647.68 8.39998C1642.08 14 1639.28 20.6667 1639.28 28.4C1639.28 36.1333 1642.08 42.9333 1647.68 48.8C1653.55 54.4 1660.35 57.2 1668.08 57.2ZM1646.88 75.2H1689.28V272H1646.88V75.2ZM1821.71 69.6C1852.91 69.6 1877.45 79.4667 1895.31 99.2C1913.45 118.667 1922.51 143.067 1922.51 172.4C1922.51 201.733 1913.45 226.4 1895.31 246.4C1877.45 266.133 1852.91 276 1821.71 276C1790.25 276 1765.45 266.133 1747.31 246.4C1729.45 226.667 1720.51 202 1720.51 172.4C1720.51 143.067 1729.45 118.667 1747.31 99.2C1765.45 79.4667 1790.25 69.6 1821.71 69.6ZM1821.71 238C1840.38 238 1854.51 231.867 1864.11 219.6C1873.98 207.067 1878.91 191.333 1878.91 172.4C1878.91 154 1873.85 138.533 1863.71 126C1853.85 113.467 1839.85 107.2 1821.71 107.2C1803.05 107.2 1788.78 113.467 1778.91 126C1769.05 138.533 1764.11 154 1764.11 172.4C1764.11 191.333 1768.91 207.067 1778.51 219.6C1788.38 231.867 1802.78 238 1821.71 238Z" fill="#242424"/>
</svg>
